<svg width="232" height="61" viewBox="0 0 232 61" fill="none" xmlns="http://www.w3.org/2000/svg">
<g filter="url(#filter0_d_377_6189)">
<path fill-rule="evenodd" clip-rule="evenodd" d="M210.492 55.1163H0V13.7791L15.7083 1.14441e-05H226.2V41.3372L210.492 55.1163Z" fill="url(#paint0_linear_377_6189)"/>
</g>
<g filter="url(#filter1_d_377_6189)">
<path fill-rule="evenodd" clip-rule="evenodd" d="M209.961 53.706H1.41022V14.4179L16.2392 1.41024H224.79V40.6983L209.961 53.706ZM210.492 55.1163H0V13.7791L15.7083 1.14441e-05H226.2V41.3372L210.492 55.1163Z" fill="#89C13C"/>
</g>
<path d="M59.8359 27.0469V27.5859C59.8359 28.4505 59.7188 29.2266 59.4844 29.9141C59.25 30.6016 58.9193 31.1875 58.4922 31.6719C58.0651 32.151 57.5547 32.5182 56.9609 32.7734C56.3724 33.0286 55.7188 33.1562 55 33.1562C54.2865 33.1562 53.6328 33.0286 53.0391 32.7734C52.4505 32.5182 51.9401 32.151 51.5078 31.6719C51.0755 31.1875 50.7396 30.6016 50.5 29.9141C50.2656 29.2266 50.1484 28.4505 50.1484 27.5859V27.0469C50.1484 26.1771 50.2656 25.401 50.5 24.7188C50.7344 24.0312 51.0651 23.4453 51.4922 22.9609C51.9245 22.4766 52.4349 22.1068 53.0234 21.8516C53.6172 21.5964 54.2708 21.4688 54.9844 21.4688C55.7031 21.4688 56.3568 21.5964 56.9453 21.8516C57.5391 22.1068 58.0495 22.4766 58.4766 22.9609C58.9089 23.4453 59.2422 24.0312 59.4766 24.7188C59.7161 25.401 59.8359 26.1771 59.8359 27.0469ZM57.4688 27.5859V27.0312C57.4688 26.4271 57.4141 25.8958 57.3047 25.4375C57.1953 24.9792 57.0339 24.5938 56.8203 24.2812C56.6068 23.9688 56.3464 23.7344 56.0391 23.5781C55.7318 23.4167 55.3802 23.3359 54.9844 23.3359C54.5885 23.3359 54.237 23.4167 53.9297 23.5781C53.6276 23.7344 53.3698 23.9688 53.1562 24.2812C52.9479 24.5938 52.7891 24.9792 52.6797 25.4375C52.5703 25.8958 52.5156 26.4271 52.5156 27.0312V27.5859C52.5156 28.1849 52.5703 28.7161 52.6797 29.1797C52.7891 29.638 52.9505 30.026 53.1641 30.3438C53.3776 30.6562 53.638 30.8932 53.9453 31.0547C54.2526 31.2161 54.6042 31.2969 55 31.2969C55.3958 31.2969 55.7474 31.2161 56.0547 31.0547C56.362 30.8932 56.6198 30.6562 56.8281 30.3438C57.0365 30.026 57.1953 29.638 57.3047 29.1797C57.4141 28.7161 57.4688 28.1849 57.4688 27.5859ZM64.875 31.3984C65.151 31.3984 65.3958 31.3464 65.6094 31.2422C65.8229 31.1328 65.9896 30.9818 66.1094 30.7891C66.2344 30.5911 66.2995 30.3594 66.3047 30.0938H68.4219C68.4167 30.6875 68.2578 31.2161 67.9453 31.6797C67.6328 32.138 67.2135 32.5 66.6875 32.7656C66.1615 33.026 65.5729 33.1562 64.9219 33.1562C64.2656 33.1562 63.6927 33.0469 63.2031 32.8281C62.7188 32.6094 62.3151 32.3073 61.9922 31.9219C61.6693 31.5312 61.4271 31.0781 61.2656 30.5625C61.1042 30.0417 61.0234 29.4844 61.0234 28.8906V28.6641C61.0234 28.0651 61.1042 27.5078 61.2656 26.9922C61.4271 26.4714 61.6693 26.0182 61.9922 25.6328C62.3151 25.2422 62.7188 24.9375 63.2031 24.7188C63.6875 24.5 64.2552 24.3906 64.9062 24.3906C65.599 24.3906 66.2057 24.5234 66.7266 24.7891C67.2526 25.0547 67.6641 25.4349 67.9609 25.9297C68.263 26.4193 68.4167 27 68.4219 27.6719H66.3047C66.2995 27.3906 66.2396 27.1354 66.125 26.9062C66.0156 26.6771 65.8542 26.4948 65.6406 26.3594C65.4323 26.2188 65.1745 26.1484 64.8672 26.1484C64.5391 26.1484 64.2708 26.2188 64.0625 26.3594C63.8542 26.4948 63.6927 26.6823 63.5781 26.9219C63.4635 27.1562 63.3828 27.4245 63.3359 27.7266C63.2943 28.0234 63.2734 28.3359 63.2734 28.6641V28.8906C63.2734 29.2188 63.2943 29.5339 63.3359 29.8359C63.3776 30.138 63.4557 30.4062 63.5703 30.6406C63.6901 30.875 63.8542 31.0599 64.0625 31.1953C64.2708 31.3307 64.5417 31.3984 64.875 31.3984ZM74.0312 24.5469V33H71.7734V24.5469H74.0312ZM76.75 24.5469V26.2891H69.0938V24.5469H76.75ZM82.3359 31.0938V27.3281C82.3359 27.0573 82.2917 26.8255 82.2031 26.6328C82.1146 26.4349 81.9766 26.2812 81.7891 26.1719C81.6068 26.0625 81.3698 26.0078 81.0781 26.0078C80.8281 26.0078 80.612 26.0521 80.4297 26.1406C80.2474 26.224 80.1068 26.3464 80.0078 26.5078C79.9089 26.6641 79.8594 26.849 79.8594 27.0625H77.6094C77.6094 26.7031 77.6927 26.362 77.8594 26.0391C78.026 25.7161 78.2682 25.4323 78.5859 25.1875C78.9036 24.9375 79.2812 24.7422 79.7188 24.6016C80.1615 24.4609 80.6562 24.3906 81.2031 24.3906C81.8594 24.3906 82.4427 24.5 82.9531 24.7188C83.4635 24.9375 83.8646 25.2656 84.1562 25.7031C84.4531 26.1406 84.6016 26.6875 84.6016 27.3438V30.9609C84.6016 31.4245 84.6302 31.8047 84.6875 32.1016C84.7448 32.3932 84.8281 32.6484 84.9375 32.8672V33H82.6641C82.5547 32.7708 82.4714 32.4844 82.4141 32.1406C82.362 31.7917 82.3359 31.4427 82.3359 31.0938ZM82.6328 27.8516L82.6484 29.125H81.3906C81.0938 29.125 80.8359 29.1589 80.6172 29.2266C80.3984 29.2943 80.2188 29.3906 80.0781 29.5156C79.9375 29.6354 79.8333 29.776 79.7656 29.9375C79.7031 30.099 79.6719 30.276 79.6719 30.4688C79.6719 30.6615 79.7161 30.8359 79.8047 30.9922C79.8932 31.1432 80.0208 31.263 80.1875 31.3516C80.3542 31.4349 80.5495 31.4766 80.7734 31.4766C81.112 31.4766 81.4062 31.4089 81.6562 31.2734C81.9062 31.138 82.099 30.9714 82.2344 30.7734C82.375 30.5755 82.4479 30.388 82.4531 30.2109L83.0469 31.1641C82.9635 31.3776 82.849 31.599 82.7031 31.8281C82.5625 32.0573 82.3828 32.2734 82.1641 32.4766C81.9453 32.6745 81.6823 32.8385 81.375 32.9688C81.0677 33.0938 80.7031 33.1562 80.2812 33.1562C79.7448 33.1562 79.2578 33.0495 78.8203 32.8359C78.388 32.6172 78.0443 32.3177 77.7891 31.9375C77.5391 31.5521 77.4141 31.1146 77.4141 30.625C77.4141 30.1823 77.4974 29.7891 77.6641 29.4453C77.8307 29.1016 78.0755 28.8125 78.3984 28.5781C78.7266 28.3385 79.1354 28.1589 79.625 28.0391C80.1146 27.9141 80.6823 27.8516 81.3281 27.8516H82.6328ZM90.5469 29.4688H87.8984L87.8828 27.9922H90.0703C90.362 27.9922 90.599 27.9635 90.7812 27.9062C90.9635 27.8438 91.0964 27.7526 91.1797 27.6328C91.2682 27.5078 91.3125 27.3568 91.3125 27.1797C91.3125 27.0234 91.2839 26.8906 91.2266 26.7812C91.1745 26.6667 91.0938 26.5729 90.9844 26.5C90.875 26.4271 90.737 26.375 90.5703 26.3438C90.4089 26.3073 90.2188 26.2891 90 26.2891H88.7344V33H86.4844V24.5469H90C90.5521 24.5469 91.0469 24.5964 91.4844 24.6953C91.9219 24.7891 92.2943 24.9323 92.6016 25.125C92.9141 25.3177 93.151 25.5625 93.3125 25.8594C93.4792 26.151 93.5625 26.4974 93.5625 26.8984C93.5625 27.1589 93.5026 27.4036 93.3828 27.6328C93.2682 27.862 93.0964 28.0651 92.8672 28.2422C92.638 28.4193 92.3542 28.5651 92.0156 28.6797C91.6823 28.7891 91.2969 28.8568 90.8594 28.8828L90.5469 29.4688ZM90.5469 33H87.3438L88.1172 31.2578H90.5469C90.8229 31.2578 91.0495 31.224 91.2266 31.1562C91.4036 31.0885 91.5339 30.9896 91.6172 30.8594C91.7057 30.724 91.75 30.5625 91.75 30.375C91.75 30.1927 91.7109 30.0339 91.6328 29.8984C91.5547 29.763 91.4271 29.6589 91.25 29.5859C91.0781 29.5078 90.8438 29.4688 90.5469 29.4688H88.4453L88.4609 27.9922H90.8516L91.3984 28.5859C91.9922 28.6224 92.4818 28.7344 92.8672 28.9219C93.2526 29.1094 93.5365 29.349 93.7188 29.6406C93.9062 29.9271 94 30.2422 94 30.5859C94 30.987 93.9245 31.3385 93.7734 31.6406C93.6224 31.9427 93.3984 32.1953 93.1016 32.3984C92.8099 32.5964 92.4505 32.7474 92.0234 32.8516C91.5964 32.9505 91.1042 33 90.5469 33ZM97.625 29.8594L100.461 24.5469H102.711V33H100.461V27.6797L97.625 33H95.375V24.5469H97.625V29.8594ZM108.75 24.5469V33H106.492V24.5469H108.75ZM111.469 24.5469V26.2891H103.812V24.5469H111.469ZM114.172 27.0547H116.625C117.396 27.0547 118.052 27.1823 118.594 27.4375C119.141 27.6875 119.557 28.0365 119.844 28.4844C120.135 28.9323 120.281 29.4505 120.281 30.0391C120.281 30.4661 120.198 30.862 120.031 31.2266C119.87 31.5859 119.633 31.8984 119.32 32.1641C119.008 32.4297 118.625 32.6354 118.172 32.7812C117.719 32.9271 117.203 33 116.625 33H112.766V24.5469H115.023V31.25H116.625C116.964 31.25 117.234 31.1953 117.438 31.0859C117.646 30.9714 117.797 30.8229 117.891 30.6406C117.99 30.4583 118.039 30.2604 118.039 30.0469C118.039 29.8229 117.99 29.6198 117.891 29.4375C117.797 29.25 117.646 29.099 117.438 28.9844C117.234 28.8698 116.964 28.8125 116.625 28.8125H114.172V27.0547ZM129.305 28.9688H127.633V27.9609H128.828C129.109 27.9609 129.333 27.9219 129.5 27.8438C129.672 27.7656 129.794 27.6562 129.867 27.5156C129.945 27.3698 129.984 27.2057 129.984 27.0234C129.984 26.862 129.951 26.7083 129.883 26.5625C129.82 26.4115 129.706 26.2891 129.539 26.1953C129.378 26.0964 129.148 26.0469 128.852 26.0469C128.607 26.0469 128.388 26.0833 128.195 26.1562C128.008 26.2292 127.859 26.3359 127.75 26.4766C127.646 26.612 127.594 26.776 127.594 26.9688H125.336C125.336 26.4323 125.49 25.974 125.797 25.5938C126.104 25.2083 126.516 24.9141 127.031 24.7109C127.547 24.5026 128.112 24.3984 128.727 24.3984C129.263 24.3984 129.747 24.4531 130.18 24.5625C130.612 24.6667 130.982 24.8229 131.289 25.0312C131.596 25.2396 131.831 25.4974 131.992 25.8047C132.159 26.1068 132.242 26.4583 132.242 26.8594C132.242 27.1458 132.174 27.4167 132.039 27.6719C131.904 27.9271 131.708 28.1536 131.453 28.3516C131.198 28.5443 130.888 28.6953 130.523 28.8047C130.164 28.9141 129.758 28.9688 129.305 28.9688ZM127.633 28.4062H129.305C129.81 28.4062 130.253 28.4557 130.633 28.5547C131.018 28.6484 131.341 28.7891 131.602 28.9766C131.862 29.1641 132.057 29.3958 132.188 29.6719C132.323 29.9427 132.391 30.2552 132.391 30.6094C132.391 31.0104 132.302 31.3698 132.125 31.6875C131.948 32 131.695 32.2656 131.367 32.4844C131.039 32.7031 130.651 32.8698 130.203 32.9844C129.755 33.099 129.263 33.1562 128.727 33.1562C128.154 33.1562 127.596 33.0625 127.055 32.875C126.513 32.6875 126.068 32.3984 125.719 32.0078C125.375 31.6172 125.203 31.1146 125.203 30.5H127.461C127.461 30.6771 127.513 30.8438 127.617 31C127.721 31.1562 127.878 31.2812 128.086 31.375C128.294 31.4635 128.552 31.5078 128.859 31.5078C129.167 31.5078 129.414 31.4583 129.602 31.3594C129.789 31.2604 129.924 31.1302 130.008 30.9688C130.096 30.8021 130.141 30.6302 130.141 30.4531C130.141 30.2031 130.091 30 129.992 29.8438C129.898 29.6875 129.753 29.5729 129.555 29.5C129.362 29.4271 129.12 29.3906 128.828 29.3906H127.633V28.4062ZM138.336 31.0938V27.3281C138.336 27.0573 138.292 26.8255 138.203 26.6328C138.115 26.4349 137.977 26.2812 137.789 26.1719C137.607 26.0625 137.37 26.0078 137.078 26.0078C136.828 26.0078 136.612 26.0521 136.43 26.1406C136.247 26.224 136.107 26.3464 136.008 26.5078C135.909 26.6641 135.859 26.849 135.859 27.0625H133.609C133.609 26.7031 133.693 26.362 133.859 26.0391C134.026 25.7161 134.268 25.4323 134.586 25.1875C134.904 24.9375 135.281 24.7422 135.719 24.6016C136.161 24.4609 136.656 24.3906 137.203 24.3906C137.859 24.3906 138.443 24.5 138.953 24.7188C139.464 24.9375 139.865 25.2656 140.156 25.7031C140.453 26.1406 140.602 26.6875 140.602 27.3438V30.9609C140.602 31.4245 140.63 31.8047 140.688 32.1016C140.745 32.3932 140.828 32.6484 140.938 32.8672V33H138.664C138.555 32.7708 138.471 32.4844 138.414 32.1406C138.362 31.7917 138.336 31.4427 138.336 31.0938ZM138.633 27.8516L138.648 29.125H137.391C137.094 29.125 136.836 29.1589 136.617 29.2266C136.398 29.2943 136.219 29.3906 136.078 29.5156C135.938 29.6354 135.833 29.776 135.766 29.9375C135.703 30.099 135.672 30.276 135.672 30.4688C135.672 30.6615 135.716 30.8359 135.805 30.9922C135.893 31.1432 136.021 31.263 136.188 31.3516C136.354 31.4349 136.549 31.4766 136.773 31.4766C137.112 31.4766 137.406 31.4089 137.656 31.2734C137.906 31.138 138.099 30.9714 138.234 30.7734C138.375 30.5755 138.448 30.388 138.453 30.2109L139.047 31.1641C138.964 31.3776 138.849 31.599 138.703 31.8281C138.562 32.0573 138.383 32.2734 138.164 32.4766C137.945 32.6745 137.682 32.8385 137.375 32.9688C137.068 33.0938 136.703 33.1562 136.281 33.1562C135.745 33.1562 135.258 33.0495 134.82 32.8359C134.388 32.6172 134.044 32.3177 133.789 31.9375C133.539 31.5521 133.414 31.1146 133.414 30.625C133.414 30.1823 133.497 29.7891 133.664 29.4453C133.831 29.1016 134.076 28.8125 134.398 28.5781C134.727 28.3385 135.135 28.1589 135.625 28.0391C136.115 27.9141 136.682 27.8516 137.328 27.8516H138.633ZM144.156 28.7812H146.438L144.086 33H141.812L144.156 28.7812ZM145.672 24.5469H149.383V33H147.133V26.2891H145.672C145.365 26.2891 145.109 26.3464 144.906 26.4609C144.703 26.5703 144.552 26.7135 144.453 26.8906C144.359 27.0625 144.312 27.2396 144.312 27.4219C144.312 27.599 144.359 27.7708 144.453 27.9375C144.547 28.1042 144.693 28.2422 144.891 28.3516C145.089 28.4609 145.336 28.5156 145.633 28.5156H147.969V30.0469H145.633C145.076 30.0469 144.576 29.9792 144.133 29.8438C143.695 29.7083 143.32 29.5208 143.008 29.2812C142.701 29.0365 142.464 28.7526 142.297 28.4297C142.135 28.1016 142.055 27.7422 142.055 27.3516C142.055 26.9453 142.138 26.5729 142.305 26.2344C142.471 25.8958 142.711 25.599 143.023 25.3438C143.336 25.0885 143.714 24.8932 144.156 24.7578C144.604 24.6172 145.109 24.5469 145.672 24.5469ZM155.5 29.4688H152.852L152.836 27.9922H155.023C155.315 27.9922 155.552 27.9635 155.734 27.9062C155.917 27.8438 156.049 27.7526 156.133 27.6328C156.221 27.5078 156.266 27.3568 156.266 27.1797C156.266 27.0234 156.237 26.8906 156.18 26.7812C156.128 26.6667 156.047 26.5729 155.938 26.5C155.828 26.4271 155.69 26.375 155.523 26.3438C155.362 26.3073 155.172 26.2891 154.953 26.2891H153.688V33H151.438V24.5469H154.953C155.505 24.5469 156 24.5964 156.438 24.6953C156.875 24.7891 157.247 24.9323 157.555 25.125C157.867 25.3177 158.104 25.5625 158.266 25.8594C158.432 26.151 158.516 26.4974 158.516 26.8984C158.516 27.1589 158.456 27.4036 158.336 27.6328C158.221 27.862 158.049 28.0651 157.82 28.2422C157.591 28.4193 157.307 28.5651 156.969 28.6797C156.635 28.7891 156.25 28.8568 155.812 28.8828L155.5 29.4688ZM155.5 33H152.297L153.07 31.2578H155.5C155.776 31.2578 156.003 31.224 156.18 31.1562C156.357 31.0885 156.487 30.9896 156.57 30.8594C156.659 30.724 156.703 30.5625 156.703 30.375C156.703 30.1927 156.664 30.0339 156.586 29.8984C156.508 29.763 156.38 29.6589 156.203 29.5859C156.031 29.5078 155.797 29.4688 155.5 29.4688H153.398L153.414 27.9922H155.805L156.352 28.5859C156.945 28.6224 157.435 28.7344 157.82 28.9219C158.206 29.1094 158.49 29.349 158.672 29.6406C158.859 29.9271 158.953 30.2422 158.953 30.5859C158.953 30.987 158.878 31.3385 158.727 31.6406C158.576 31.9427 158.352 32.1953 158.055 32.3984C157.763 32.5964 157.404 32.7474 156.977 32.8516C156.549 32.9505 156.057 33 155.5 33ZM162.734 24.5469V33H160.484V24.5469H162.734ZM168.227 24.5469L164.586 29.8359H162.336L162.062 27.7578H163.555L165.375 24.5469H168.227ZM165.477 33L163.398 29.4297L165.359 28.3438L168.492 33H165.477ZM171.844 32.0469L174.086 24.5469H176.5L173.102 34.2734C173.029 34.487 172.93 34.7161 172.805 34.9609C172.685 35.2057 172.521 35.4375 172.312 35.6562C172.109 35.8802 171.852 36.0625 171.539 36.2031C171.232 36.3438 170.854 36.4141 170.406 36.4141C170.193 36.4141 170.018 36.401 169.883 36.375C169.747 36.349 169.586 36.3125 169.398 36.2656V34.6172C169.456 34.6172 169.516 34.6172 169.578 34.6172C169.641 34.6224 169.701 34.625 169.758 34.625C170.055 34.625 170.297 34.5911 170.484 34.5234C170.672 34.4557 170.823 34.3516 170.938 34.2109C171.052 34.0755 171.143 33.8984 171.211 33.6797L171.844 32.0469ZM170.906 24.5469L172.742 30.6719L173.062 33.0547L171.531 33.2188L168.492 24.5469H170.906Z" fill="white"/>
<defs>
<filter id="filter0_d_377_6189" x="0" y="0" width="231.2" height="60.1163" filterUnits="userSpaceOnUse" color-interpolation-filters="sRGB">
<feFlood flood-opacity="0" result="BackgroundImageFix"/>
<feColorMatrix in="SourceAlpha" type="matrix" values="0 0 0 0 0 0 0 0 0 0 0 0 0 0 0 0 0 0 127 0" result="hardAlpha"/>
<feOffset dx="5" dy="5"/>
<feColorMatrix type="matrix" values="0 0 0 0 0.537255 0 0 0 0 0.756863 0 0 0 0 0.235294 0 0 0 1 0"/>
<feBlend mode="normal" in2="BackgroundImageFix" result="effect1_dropShadow_377_6189"/>
<feBlend mode="normal" in="SourceGraphic" in2="effect1_dropShadow_377_6189" result="shape"/>
</filter>
<filter id="filter1_d_377_6189" x="0" y="0" width="231.2" height="60.1163" filterUnits="userSpaceOnUse" color-interpolation-filters="sRGB">
<feFlood flood-opacity="0" result="BackgroundImageFix"/>
<feColorMatrix in="SourceAlpha" type="matrix" values="0 0 0 0 0 0 0 0 0 0 0 0 0 0 0 0 0 0 127 0" result="hardAlpha"/>
<feOffset dx="5" dy="5"/>
<feColorMatrix type="matrix" values="0 0 0 0 0.537255 0 0 0 0 0.756863 0 0 0 0 0.235294 0 0 0 1 0"/>
<feBlend mode="normal" in2="BackgroundImageFix" result="effect1_dropShadow_377_6189"/>
<feBlend mode="normal" in="SourceGraphic" in2="effect1_dropShadow_377_6189" result="shape"/>
</filter>
<linearGradient id="paint0_linear_377_6189" x1="226.562" y1="8.57365" x2="20.7204" y2="101.175" gradientUnits="userSpaceOnUse">
<stop stop-color="#2E2E78"/>
<stop offset="1" stop-color="#4A4AAD"/>
</linearGradient>
</defs>
</svg>
