<svg width="267" height="61" viewBox="0 0 267 61" fill="none" xmlns="http://www.w3.org/2000/svg">
<g filter="url(#filter0_d_377_6227)">
<path fill-rule="evenodd" clip-rule="evenodd" d="M243.806 56H0V14L18.1944 0H262V42L243.806 56Z" fill="url(#paint0_linear_377_6227)"/>
<path d="M0.5 14.2461V55.5H243.635L261.5 41.7539V0.5H18.3645L0.5 14.2461Z" stroke="#89C13C"/>
</g>
<path d="M99.2226 28.9496H96.3008L96.2851 27.3403H98.7383C99.1706 27.3403 99.5247 27.2856 99.8008 27.1762C100.077 27.0616 100.283 26.8976 100.418 26.684C100.559 26.4653 100.629 26.1996 100.629 25.8871C100.629 25.533 100.561 25.2465 100.426 25.0278C100.296 24.809 100.09 24.6502 99.8086 24.5512C99.5325 24.4523 99.1758 24.4028 98.7383 24.4028H97.1133V33.9418H94.7695V22.5668H98.7383C99.3997 22.5668 99.9909 22.6293 100.512 22.7543C101.038 22.8793 101.483 23.0694 101.848 23.3246C102.212 23.5799 102.491 23.9028 102.684 24.2934C102.876 24.6788 102.973 25.1371 102.973 25.6684C102.973 26.1371 102.866 26.5694 102.652 26.9653C102.444 27.3611 102.113 27.684 101.66 27.934C101.212 28.184 100.626 28.322 99.9023 28.3481L99.2226 28.9496ZM99.1211 33.9418H95.6601L96.5742 32.1137H99.1211C99.5325 32.1137 99.8685 32.0486 100.129 31.9184C100.389 31.783 100.582 31.6007 100.707 31.3715C100.832 31.1424 100.895 30.8793 100.895 30.5825C100.895 30.2491 100.837 29.9601 100.723 29.7153C100.613 29.4705 100.436 29.283 100.191 29.1528C99.9466 29.0174 99.6237 28.9496 99.2226 28.9496H96.9648L96.9804 27.3403H99.7929L100.332 27.9731C101.025 27.9627 101.582 28.0851 102.004 28.3403C102.431 28.5903 102.741 28.9158 102.934 29.3168C103.131 29.7179 103.23 30.1476 103.23 30.6059C103.23 31.3351 103.072 31.9496 102.754 32.4496C102.436 32.9444 101.97 33.3168 101.355 33.5668C100.746 33.8168 100.001 33.9418 99.1211 33.9418ZM111.23 25.4887V33.9418H108.98V25.4887H111.23ZM116.723 25.4887L113.082 30.7778H110.832L110.559 28.6996H112.051L113.871 25.4887H116.723ZM113.973 33.9418L111.895 30.3715L113.855 29.2856L116.988 33.9418H113.973ZM117.113 29.8012V29.6371C117.113 29.0174 117.202 28.447 117.379 27.9262C117.556 27.4002 117.814 26.9444 118.152 26.559C118.491 26.1736 118.908 25.8741 119.402 25.6606C119.897 25.4418 120.465 25.3325 121.105 25.3325C121.746 25.3325 122.316 25.4418 122.816 25.6606C123.316 25.8741 123.736 26.1736 124.074 26.559C124.418 26.9444 124.678 27.4002 124.855 27.9262C125.033 28.447 125.121 29.0174 125.121 29.6371V29.8012C125.121 30.4158 125.033 30.9861 124.855 31.5121C124.678 32.033 124.418 32.4887 124.074 32.8793C123.736 33.2648 123.319 33.5642 122.824 33.7778C122.329 33.9913 121.762 34.0981 121.121 34.0981C120.48 34.0981 119.91 33.9913 119.41 33.7778C118.915 33.5642 118.496 33.2648 118.152 32.8793C117.814 32.4887 117.556 32.033 117.379 31.5121C117.202 30.9861 117.113 30.4158 117.113 29.8012ZM119.363 29.6371V29.8012C119.363 30.1554 119.395 30.4861 119.457 30.7934C119.52 31.1007 119.618 31.3715 119.754 31.6059C119.895 31.8351 120.077 32.0148 120.301 32.145C120.525 32.2752 120.798 32.3403 121.121 32.3403C121.434 32.3403 121.702 32.2752 121.926 32.145C122.15 32.0148 122.329 31.8351 122.465 31.6059C122.6 31.3715 122.699 31.1007 122.762 30.7934C122.829 30.4861 122.863 30.1554 122.863 29.8012V29.6371C122.863 29.2934 122.829 28.9705 122.762 28.6684C122.699 28.3611 122.598 28.0903 122.457 27.8559C122.322 27.6163 122.142 27.4288 121.918 27.2934C121.694 27.158 121.423 27.0903 121.105 27.0903C120.788 27.0903 120.517 27.158 120.293 27.2934C120.074 27.4288 119.895 27.6163 119.754 27.8559C119.618 28.0903 119.52 28.3611 119.457 28.6684C119.395 28.9705 119.363 29.2934 119.363 29.6371ZM128.754 27.1137V37.1918H126.504V25.4887H128.59L128.754 27.1137ZM134.105 29.6215V29.7856C134.105 30.4002 134.033 30.9705 133.887 31.4965C133.746 32.0226 133.538 32.4809 133.262 32.8715C132.986 33.2569 132.642 33.559 132.23 33.7778C131.824 33.9913 131.355 34.0981 130.824 34.0981C130.309 34.0981 129.861 33.9939 129.48 33.7856C129.1 33.5773 128.78 33.2856 128.52 32.9106C128.264 32.5304 128.059 32.0903 127.902 31.5903C127.746 31.0903 127.626 30.5538 127.543 29.9809V29.5512C127.626 28.9366 127.746 28.3741 127.902 27.8637C128.059 27.3481 128.264 26.9028 128.52 26.5278C128.78 26.1476 129.098 25.8533 129.473 25.645C129.853 25.4366 130.298 25.3325 130.809 25.3325C131.345 25.3325 131.816 25.434 132.223 25.6371C132.634 25.8403 132.978 26.1319 133.254 26.5121C133.535 26.8924 133.746 27.3455 133.887 27.8715C134.033 28.3976 134.105 28.9809 134.105 29.6215ZM131.848 29.7856V29.6215C131.848 29.2621 131.816 28.9314 131.754 28.6293C131.697 28.322 131.603 28.0538 131.473 27.8246C131.348 27.5955 131.181 27.4184 130.973 27.2934C130.77 27.1632 130.522 27.0981 130.23 27.0981C129.923 27.0981 129.66 27.1476 129.441 27.2465C129.228 27.3455 129.053 27.4887 128.918 27.6762C128.783 27.8637 128.681 28.0877 128.613 28.3481C128.546 28.6085 128.504 28.9028 128.488 29.2309V30.3168C128.514 30.7023 128.587 31.0486 128.707 31.3559C128.827 31.658 129.012 31.8976 129.262 32.0746C129.512 32.2517 129.84 32.3403 130.246 32.3403C130.543 32.3403 130.793 32.2752 130.996 32.145C131.199 32.0095 131.363 31.8246 131.488 31.5903C131.618 31.3559 131.71 31.0851 131.762 30.7778C131.819 30.4705 131.848 30.1398 131.848 29.7856ZM139.27 29.9106H137.598V28.9028H138.793C139.074 28.9028 139.298 28.8637 139.465 28.7856C139.637 28.7075 139.759 28.5981 139.832 28.4575C139.91 28.3116 139.949 28.1476 139.949 27.9653C139.949 27.8038 139.915 27.6502 139.848 27.5043C139.785 27.3533 139.671 27.2309 139.504 27.1371C139.342 27.0382 139.113 26.9887 138.816 26.9887C138.572 26.9887 138.353 27.0252 138.16 27.0981C137.973 27.171 137.824 27.2778 137.715 27.4184C137.611 27.5538 137.559 27.7179 137.559 27.9106H135.301C135.301 27.3741 135.454 26.9158 135.762 26.5356C136.069 26.1502 136.48 25.8559 136.996 25.6528C137.512 25.4444 138.077 25.3403 138.691 25.3403C139.228 25.3403 139.712 25.395 140.145 25.5043C140.577 25.6085 140.947 25.7648 141.254 25.9731C141.561 26.1814 141.796 26.4392 141.957 26.7465C142.124 27.0486 142.207 27.4002 142.207 27.8012C142.207 28.0877 142.139 28.3585 142.004 28.6137C141.868 28.8689 141.673 29.0955 141.418 29.2934C141.163 29.4861 140.853 29.6371 140.488 29.7465C140.129 29.8559 139.723 29.9106 139.27 29.9106ZM137.598 29.3481H139.27C139.775 29.3481 140.217 29.3976 140.598 29.4965C140.983 29.5903 141.306 29.7309 141.566 29.9184C141.827 30.1059 142.022 30.3377 142.152 30.6137C142.288 30.8845 142.355 31.197 142.355 31.5512C142.355 31.9523 142.267 32.3116 142.09 32.6293C141.913 32.9418 141.66 33.2075 141.332 33.4262C141.004 33.645 140.616 33.8116 140.168 33.9262C139.72 34.0408 139.228 34.0981 138.691 34.0981C138.118 34.0981 137.561 34.0043 137.02 33.8168C136.478 33.6293 136.033 33.3403 135.684 32.9496C135.34 32.559 135.168 32.0564 135.168 31.4418H137.426C137.426 31.6189 137.478 31.7856 137.582 31.9418C137.686 32.0981 137.842 32.2231 138.051 32.3168C138.259 32.4054 138.517 32.4496 138.824 32.4496C139.131 32.4496 139.379 32.4002 139.566 32.3012C139.754 32.2023 139.889 32.072 139.973 31.9106C140.061 31.7439 140.105 31.572 140.105 31.395C140.105 31.145 140.056 30.9418 139.957 30.7856C139.863 30.6293 139.717 30.5148 139.52 30.4418C139.327 30.3689 139.085 30.3325 138.793 30.3325H137.598V29.3481ZM145.98 30.8012L148.816 25.4887H151.066V33.9418H148.816V28.6215L145.98 33.9418H143.73V25.4887H145.98V30.8012ZM158.59 28.9028V30.6528H154.293V28.9028H158.59ZM155.043 25.4887V33.9418H152.793V25.4887H155.043ZM160.113 25.4887V33.9418H157.855V25.4887H160.113ZM164.371 32.9887L166.613 25.4887H169.027L165.629 35.2153C165.556 35.4288 165.457 35.658 165.332 35.9028C165.212 36.1476 165.048 36.3793 164.84 36.5981C164.637 36.822 164.379 37.0043 164.066 37.145C163.759 37.2856 163.381 37.3559 162.934 37.3559C162.72 37.3559 162.546 37.3429 162.41 37.3168C162.275 37.2908 162.113 37.2543 161.926 37.2075V35.559C161.983 35.559 162.043 35.559 162.105 35.559C162.168 35.5642 162.228 35.5668 162.285 35.5668C162.582 35.5668 162.824 35.533 163.012 35.4653C163.199 35.3976 163.35 35.2934 163.465 35.1528C163.579 35.0174 163.671 34.8403 163.738 34.6215L164.371 32.9887ZM163.434 25.4887L165.27 31.6137L165.59 33.9965L164.059 34.1606L161.02 25.4887H163.434Z" fill="white"/>
<defs>
<filter id="filter0_d_377_6227" x="0" y="0" width="267" height="61" filterUnits="userSpaceOnUse" color-interpolation-filters="sRGB">
<feFlood flood-opacity="0" result="BackgroundImageFix"/>
<feColorMatrix in="SourceAlpha" type="matrix" values="0 0 0 0 0 0 0 0 0 0 0 0 0 0 0 0 0 0 127 0" result="hardAlpha"/>
<feOffset dx="5" dy="5"/>
<feColorMatrix type="matrix" values="0 0 0 0 0.537255 0 0 0 0 0.756863 0 0 0 0 0.235294 0 0 0 1 0"/>
<feBlend mode="normal" in2="BackgroundImageFix" result="effect1_dropShadow_377_6227"/>
<feBlend mode="normal" in="SourceGraphic" in2="effect1_dropShadow_377_6227" result="shape"/>
</filter>
<linearGradient id="paint0_linear_377_6227" x1="262.42" y1="8.71111" x2="35.4446" y2="125.114" gradientUnits="userSpaceOnUse">
<stop stop-color="#5F5FCB"/>
<stop offset="1" stop-color="#9090EB"/>
</linearGradient>
</defs>
</svg>
