<svg width="13" height="17" viewBox="0 0 13 17" fill="none" xmlns="http://www.w3.org/2000/svg">
<path opacity="0.989" fill-rule="evenodd" clip-rule="evenodd" d="M0.351563 0.00219776C4.2422 -0.00366279 8.13284 0.00219776 12.0234 0.0197759C12.1816 0.0842278 12.293 0.195557 12.3574 0.35376C12.3809 5.74437 12.3809 11.135 12.3574 16.5256C12.2587 16.7713 12.0771 16.8884 11.8125 16.8772C11.6851 16.8862 11.568 16.8569 11.4609 16.7893C9.70952 15.3805 7.95171 13.9801 6.1875 12.5881C4.42463 13.9818 2.66681 15.3822 0.914063 16.7893C0.53427 16.9851 0.235442 16.8972 0.017579 16.5256C-0.00585967 11.135 -0.00585967 5.74437 0.017579 0.35376C0.0886755 0.194854 0.200005 0.0776677 0.351563 0.00219776ZM1.125 1.1272C4.5 1.1272 7.875 1.1272 11.25 1.1272C11.2617 5.7796 11.25 10.4319 11.2148 15.0842C9.62455 13.7927 8.01907 12.5212 6.39844 11.2698C6.20167 11.2314 6.01418 11.2549 5.83594 11.3401C4.28242 12.5948 2.72384 13.8429 1.16016 15.0842C1.125 10.4319 1.11329 5.7796 1.125 1.1272Z" fill="#2E2E78"/>
</svg>
